<svg width="58" height="58" viewBox="0 0 58 58" fill="none" xmlns="http://www.w3.org/2000/svg">
<g opacity="0.1">
<path d="M29.2175 23.5625C29.6982 23.5625 30.1592 23.7535 30.4991 24.0934C30.839 24.4333 31.03 24.8943 31.03 25.375V28.188C31.0295 32.5182 30.3545 36.822 29.029 40.9444L24.2041 55.9519C24.0483 56.398 23.7244 56.7657 23.3015 56.9765C22.8785 57.1873 22.39 57.2246 21.9399 57.0804C21.4899 56.9362 21.114 56.622 20.8923 56.2046C20.6706 55.7873 20.6206 55.2999 20.7531 54.8462L25.5743 39.8351C26.7846 36.0712 27.401 32.1417 27.4013 28.188V25.375C27.4013 24.8943 27.5923 24.4333 27.9322 24.0934C28.2721 23.7535 28.7331 23.5625 29.2138 23.5625H29.2175Z" fill="#E71313"/>
<path d="M21.9675 25.375C21.9675 24.4229 22.155 23.4802 22.5194 22.6005C22.8837 21.7209 23.4178 20.9217 24.091 20.2485C24.7642 19.5753 25.5634 19.0412 26.4431 18.6769C27.3227 18.3125 28.2654 18.125 29.2175 18.125C30.1696 18.125 31.1124 18.3125 31.992 18.6769C32.8716 19.0412 33.6708 19.5753 34.344 20.2485C35.0173 20.9217 35.5513 21.7209 35.9156 22.6005C36.28 23.4802 36.4675 24.4229 36.4675 25.375C36.4675 25.8557 36.2766 26.3167 35.9366 26.6566C35.5967 26.9965 35.1357 27.1875 34.655 27.1875C34.1743 27.1875 33.7133 26.9965 33.3734 26.6566C33.0335 26.3167 32.8425 25.8557 32.8425 25.375C32.8425 24.4136 32.4606 23.4916 31.7808 22.8117C31.101 22.1319 30.1789 21.75 29.2175 21.75C28.2561 21.75 27.3341 22.1319 26.6542 22.8117C25.9744 23.4916 25.5925 24.4136 25.5925 25.375V26.5785C25.5925 28.0611 25.5128 29.5365 25.3533 31.0046C25.2905 31.4727 25.0476 31.8978 24.6762 32.1894C24.3048 32.4811 23.8342 32.6162 23.3646 32.5662C22.8951 32.5161 22.4636 32.2847 22.162 31.9213C21.8604 31.5579 21.7126 31.0911 21.75 30.6204C21.895 29.2791 21.9675 27.9306 21.9675 26.5785V25.375ZM34.6876 29C34.9257 29.0061 35.1602 29.0591 35.3778 29.1558C35.5953 29.2526 35.7917 29.3913 35.9556 29.564C36.1196 29.7367 36.2479 29.94 36.3332 30.1623C36.4186 30.3846 36.4593 30.6216 36.453 30.8596C36.3456 34.9772 35.6285 39.0562 34.3251 42.9635L29.7359 56.7385C29.5835 57.1947 29.2561 57.5717 28.8258 57.7865C28.3955 58.0013 27.8974 58.0364 27.4413 57.884C26.9851 57.7316 26.6081 57.4043 26.3933 56.9739C26.1785 56.5436 26.1434 56.0456 26.2958 55.5894L30.8886 41.8144C32.0773 38.2474 32.7308 34.5239 32.828 30.7654C32.8341 30.5273 32.8871 30.2928 32.9839 30.0752C33.0806 29.8577 33.2193 29.6613 33.392 29.4974C33.5647 29.3334 33.768 29.2051 33.9903 29.1198C34.2126 29.0344 34.4496 28.9937 34.6876 29ZM22.5221 36.6669C22.7498 36.7372 22.9613 36.8517 23.1447 37.0038C23.3281 37.1559 23.4796 37.3427 23.5908 37.5535C23.7019 37.7642 23.7703 37.9948 23.7922 38.2321C23.8141 38.4693 23.789 38.7086 23.7184 38.9361L18.995 54.1539C18.9281 54.3853 18.8156 54.6011 18.6643 54.7885C18.513 54.976 18.3259 55.1314 18.1138 55.2457C17.9017 55.36 17.669 55.4309 17.4292 55.4542C17.1894 55.4775 16.9474 55.4527 16.7173 55.3814C16.4872 55.3101 16.2736 55.1936 16.089 55.0388C15.9045 54.884 15.7526 54.6939 15.6424 54.4797C15.5321 54.2655 15.4657 54.0315 15.4469 53.7913C15.4282 53.5511 15.4575 53.3096 15.5331 53.0809L20.2565 37.8595C20.3993 37.4012 20.718 37.0183 21.1427 36.7947C21.5675 36.5711 22.0635 36.5252 22.5221 36.6669Z" fill="black"/>
<path d="M17.2515 21.1446C18.2526 18.3266 20.2167 15.9526 22.7974 14.4415C25.3781 12.9303 28.4095 12.379 31.357 12.8849C34.3045 13.3907 36.9786 14.9212 38.9078 17.2063C40.837 19.4914 41.8972 22.3844 41.9015 25.375C41.9015 25.8557 41.7105 26.3167 41.3706 26.6566C41.0307 26.9965 40.5697 27.1875 40.089 27.1875C39.6083 27.1875 39.1472 26.9965 38.8073 26.6566C38.4674 26.3167 38.2765 25.8557 38.2765 25.375C38.2761 23.2373 37.5201 21.1686 36.1421 19.5344C34.7641 17.9002 32.8528 16.8057 30.7459 16.4444C28.639 16.083 26.4722 16.4781 24.6283 17.5597C22.7845 18.6414 21.3824 20.34 20.6698 22.3554C20.5093 22.8087 20.1752 23.1796 19.7412 23.3866C19.3071 23.5937 18.8086 23.6197 18.3553 23.4592C17.902 23.2986 17.531 22.9646 17.324 22.5305C17.117 22.0965 17.0909 21.5979 17.2515 21.1446V21.1446ZM18.339 27.1984C18.8172 27.2451 19.2573 27.4799 19.5625 27.851C19.8677 28.2222 20.0131 28.6994 19.9666 29.1776C19.7219 31.6728 19.2363 34.1384 18.5166 36.54L14.0868 51.301C13.9489 51.7615 13.6336 52.1484 13.2104 52.3765C12.7873 52.6045 12.2908 52.6552 11.8303 52.5172C11.3698 52.3792 10.9829 52.064 10.7548 51.6408C10.5268 51.2176 10.4761 50.7211 10.6141 50.2606L15.0438 35.4996C15.6969 33.3216 16.1376 31.0854 16.3597 28.8224C16.4065 28.3441 16.6412 27.904 17.0124 27.5988C17.3835 27.2936 17.8607 27.1483 18.339 27.1948V27.1984ZM40.089 29.5438C40.5697 29.5438 41.0307 29.7347 41.3706 30.0746C41.7105 30.4145 41.9015 30.8755 41.9015 31.3563C41.9015 35.9963 41.1293 40.6073 39.6105 44.9935L35.6592 56.3941C35.4871 56.8282 35.1542 57.179 34.7298 57.3737C34.3054 57.5683 33.8222 57.5916 33.3811 57.4388C32.9399 57.2859 32.5747 56.9688 32.3616 56.5533C32.1485 56.1379 32.1039 55.6562 32.2372 55.2088L36.1848 43.8081C37.5696 39.8025 38.2801 35.5939 38.2801 31.3563C38.2801 30.8755 38.471 30.4145 38.811 30.0746C39.1509 29.7347 39.6119 29.5438 40.0926 29.5438H40.089Z" fill="black"/>
<path d="M14.1448 15.3047C16.1587 12.2856 19.0332 9.94107 22.3956 8.57529C25.7581 7.20952 29.4533 6.88545 33.0021 7.64512C33.2351 7.69463 33.4561 7.78955 33.6524 7.92447C33.8488 8.05938 34.0166 8.23164 34.1464 8.43142C34.2761 8.6312 34.3653 8.85458 34.4087 9.08882C34.4521 9.32305 34.449 9.56354 34.3995 9.79656C34.35 10.0296 34.2551 10.2506 34.1202 10.4469C33.9852 10.6433 33.813 10.8111 33.6132 10.9409C33.4134 11.0706 33.19 11.1598 32.9558 11.2032C32.7216 11.2466 32.4811 11.2435 32.2481 11.194C29.4084 10.5846 26.4511 10.8429 23.7601 11.9354C21.0691 13.0278 18.7686 14.9039 17.1572 17.3202C16.8861 17.7106 16.4725 17.9788 16.0056 18.0672C15.5386 18.1555 15.0556 18.057 14.6606 17.7927C14.2657 17.5284 13.9903 17.1196 13.8938 16.6542C13.7973 16.1889 13.8875 15.7043 14.1448 15.3047V15.3047ZM38.5048 11.8429C38.8188 11.4791 39.2644 11.2549 39.7436 11.2195C40.2228 11.1842 40.6965 11.3406 41.0604 11.6544C43.0329 13.3546 44.615 15.4608 45.6986 17.8288C46.7822 20.1968 47.3417 22.7708 47.3389 25.375V30.8125C47.3389 31.2932 47.148 31.7542 46.8081 32.0941C46.4682 32.434 46.0071 32.625 45.5264 32.625C45.0457 32.625 44.5847 32.434 44.2448 32.0941C43.9049 31.7542 43.7139 31.2932 43.7139 30.8125V25.375C43.7165 23.2915 43.2689 21.232 42.4017 19.3375C41.5345 17.443 40.2683 15.7583 38.6897 14.3985C38.3264 14.084 38.1029 13.6382 38.0682 13.159C38.0336 12.6797 38.1906 12.2064 38.5048 11.8429ZM13.3401 21.1772C13.5758 21.2118 13.8024 21.2926 14.0068 21.4148C14.2113 21.537 14.3897 21.6984 14.5318 21.8896C14.6739 22.0808 14.7769 22.2982 14.8349 22.5293C14.8929 22.7604 14.9047 23.0006 14.8698 23.2362C14.7647 23.9322 14.7103 24.65 14.7103 25.375C14.7103 27.9487 14.3478 30.5116 13.6301 32.9875L9.49756 47.2084C9.43564 47.4419 9.32763 47.6608 9.17991 47.852C9.03218 48.0432 8.84772 48.2029 8.63736 48.3218C8.427 48.4407 8.19499 48.5163 7.95498 48.5442C7.71497 48.5721 7.4718 48.5518 7.23978 48.4843C7.00775 48.4169 6.79155 48.3037 6.60388 48.1515C6.41622 47.9993 6.26088 47.8111 6.14701 47.598C6.03314 47.3849 5.96302 47.1512 5.94079 46.9106C5.91856 46.67 5.94467 46.4274 6.01756 46.197L10.1501 31.9761C10.7716 29.8309 11.0865 27.6085 11.0853 25.375C11.0853 24.4687 11.1542 23.577 11.2811 22.707C11.3157 22.4713 11.3964 22.2447 11.5186 22.0402C11.6408 21.8357 11.8022 21.6573 11.9934 21.5153C12.1847 21.3732 12.402 21.2702 12.6331 21.2122C12.8642 21.1542 13.1044 21.1423 13.3401 21.1772V21.1772ZM45.5373 34.4447C46.016 34.4853 46.459 34.7143 46.769 35.0814C47.0789 35.4484 47.2305 35.9235 47.1903 36.4023C46.8858 40.0273 46.1101 43.6015 44.8703 47.038L42.1733 54.5345C42.0052 54.9793 41.669 55.3402 41.2372 55.5394C40.8055 55.7386 40.3127 55.7601 39.8652 55.5994C39.4177 55.4386 39.0513 55.1085 38.8449 54.6801C38.6386 54.2517 38.6089 53.7594 38.7622 53.3093L41.4628 45.8055C42.5892 42.6759 43.3009 39.4122 43.5798 36.0978C43.6204 35.6191 43.8494 35.1761 44.2164 34.8661C44.5835 34.5562 45.0586 34.4046 45.5373 34.4447V34.4447Z" fill="#D07474"/>
<path d="M17.4362 4.96625C21.0184 2.89808 25.0819 1.80934 29.2182 1.80947C33.3545 1.8096 37.418 2.89861 41 4.967C44.5821 7.0354 47.5565 10.0103 49.6243 13.5927C51.6921 17.1751 52.7805 21.2387 52.78 25.375C52.78 25.8557 52.589 26.3167 52.2491 26.6566C51.9092 26.9965 51.4482 27.1875 50.9675 27.1875C50.4867 27.1875 50.0257 26.9965 49.6858 26.6566C49.3459 26.3167 49.155 25.8557 49.155 25.375C49.1561 21.8747 48.2358 18.4357 46.4864 15.4039C44.737 12.3721 42.2202 9.85424 39.1891 8.10356C36.158 6.35288 32.7195 5.43105 29.2191 5.43075C25.7188 5.43046 22.2801 6.3517 19.2487 8.10187C18.8345 8.31856 18.3525 8.36682 17.9036 8.23657C17.4546 8.10632 17.0733 7.80763 16.8394 7.4029C16.6054 6.99817 16.5369 6.51869 16.6481 6.06463C16.7593 5.61057 17.0417 5.21704 17.4362 4.96625V4.96625ZM14.21 9.52287C14.3875 9.68139 14.5321 9.87333 14.6355 10.0877C14.7389 10.3021 14.7991 10.5348 14.8125 10.7725C14.826 11.0101 14.7925 11.2481 14.714 11.4728C14.6355 11.6975 14.5135 11.9046 14.355 12.0821C11.0794 15.7341 9.27158 20.4693 9.27995 25.375C9.27995 25.8557 9.08899 26.3167 8.74908 26.6566C8.40917 26.9965 7.94815 27.1875 7.46745 27.1875C6.98674 27.1875 6.52573 26.9965 6.18582 26.6566C5.84591 26.3167 5.65495 25.8557 5.65495 25.375C5.65495 19.343 7.9242 13.833 11.6543 9.66787C11.8128 9.4903 12.0048 9.34569 12.2192 9.2423C12.4336 9.13891 12.6663 9.07877 12.9039 9.06531C13.1416 9.05184 13.3795 9.08532 13.6043 9.16383C13.829 9.24234 14.036 9.36434 14.2136 9.52287H14.21ZM6.94182 29.0725C7.40404 29.2026 7.79572 29.5109 8.03088 29.9295C8.26604 30.3482 8.32545 30.8431 8.19607 31.3055L5.3722 41.3359C5.31583 41.5735 5.21201 41.7973 5.06698 41.9938C4.92195 42.1903 4.7387 42.3555 4.52824 42.4794C4.31778 42.6033 4.08445 42.6834 3.84226 42.7149C3.60006 42.7464 3.35401 42.7286 3.11886 42.6626C2.88372 42.5966 2.66434 42.4837 2.47389 42.3308C2.28345 42.1779 2.12587 41.9881 2.01063 41.7728C1.89538 41.5575 1.82484 41.3211 1.80324 41.0778C1.78165 40.8345 1.80944 40.5894 1.88495 40.3571L4.7052 30.3267C4.76962 30.0975 4.87858 29.8832 5.02587 29.696C5.17316 29.5089 5.35589 29.3526 5.5636 29.2361C5.77131 29.1197 5.99994 29.0452 6.23643 29.0172C6.47291 28.9891 6.71261 29.0079 6.94182 29.0725V29.0725ZM50.9856 30.8161C51.2236 30.8208 51.4584 30.8724 51.6765 30.9679C51.8946 31.0633 52.0918 31.2008 52.2567 31.3725C52.4217 31.5442 52.5512 31.7467 52.6378 31.9684C52.7245 32.1902 52.7666 32.4268 52.7618 32.6649C52.6531 38.0987 52.1782 43.6305 50.1265 49.097L49.8727 49.7749C49.6952 50.2126 49.3538 50.5638 48.9212 50.7535C48.4886 50.9433 47.999 50.9566 47.5567 50.7908C47.1144 50.6249 46.7543 50.2929 46.5531 49.8655C46.352 49.4381 46.3256 48.949 46.4797 48.5025L46.7335 47.8246C48.5677 42.9309 49.0317 37.8921 49.1368 32.5924C49.1415 32.3543 49.1931 32.1196 49.2886 31.9015C49.384 31.6834 49.5215 31.4862 49.6932 31.3212C49.8649 31.1563 50.0674 31.0268 50.2892 30.9401C50.5109 30.8534 50.7475 30.8113 50.9856 30.8161V30.8161Z" fill="black"/>
</g>
</svg>
