<svg width="253" height="58" viewBox="0 0 253 58" fill="none" xmlns="http://www.w3.org/2000/svg">
<g opacity="0.62">
<path d="M29.2175 23.5625C29.6982 23.5625 30.1592 23.7535 30.4991 24.0934C30.839 24.4333 31.03 24.8943 31.03 25.375V28.188C31.0295 32.5182 30.3545 36.822 29.029 40.9444L24.2041 55.9519C24.0483 56.398 23.7244 56.7657 23.3015 56.9765C22.8785 57.1873 22.39 57.2246 21.9399 57.0804C21.4899 56.9362 21.114 56.622 20.8923 56.2046C20.6706 55.7873 20.6206 55.2999 20.7531 54.8462L25.5743 39.8351C26.7846 36.0712 27.401 32.1417 27.4013 28.188V25.375C27.4013 24.8943 27.5923 24.4333 27.9322 24.0934C28.2721 23.7535 28.7331 23.5625 29.2138 23.5625H29.2175Z" fill="#E71313"/>
<path d="M21.9675 25.375C21.9675 24.4229 22.155 23.4802 22.5194 22.6005C22.8837 21.7209 23.4178 20.9217 24.091 20.2485C24.7642 19.5753 25.5634 19.0412 26.4431 18.6769C27.3227 18.3125 28.2654 18.125 29.2175 18.125C30.1696 18.125 31.1124 18.3125 31.992 18.6769C32.8716 19.0412 33.6708 19.5753 34.344 20.2485C35.0173 20.9217 35.5513 21.7209 35.9156 22.6005C36.28 23.4802 36.4675 24.4229 36.4675 25.375C36.4675 25.8557 36.2766 26.3167 35.9366 26.6566C35.5967 26.9965 35.1357 27.1875 34.655 27.1875C34.1743 27.1875 33.7133 26.9965 33.3734 26.6566C33.0335 26.3167 32.8425 25.8557 32.8425 25.375C32.8425 24.4136 32.4606 23.4916 31.7808 22.8117C31.101 22.1319 30.1789 21.75 29.2175 21.75C28.2561 21.75 27.3341 22.1319 26.6542 22.8117C25.9744 23.4916 25.5925 24.4136 25.5925 25.375V26.5785C25.5925 28.0611 25.5128 29.5365 25.3533 31.0046C25.2905 31.4727 25.0476 31.8978 24.6762 32.1894C24.3048 32.4811 23.8342 32.6162 23.3646 32.5662C22.8951 32.5161 22.4636 32.2847 22.162 31.9213C21.8604 31.5579 21.7126 31.0911 21.75 30.6204C21.895 29.2791 21.9675 27.9306 21.9675 26.5785V25.375ZM34.6876 29C34.9257 29.0061 35.1602 29.0591 35.3778 29.1558C35.5953 29.2526 35.7917 29.3913 35.9556 29.564C36.1196 29.7367 36.2479 29.94 36.3332 30.1623C36.4186 30.3846 36.4593 30.6216 36.453 30.8596C36.3456 34.9772 35.6285 39.0562 34.3251 42.9635L29.7359 56.7385C29.5835 57.1947 29.2561 57.5717 28.8258 57.7865C28.3955 58.0013 27.8974 58.0364 27.4413 57.884C26.9851 57.7316 26.6081 57.4043 26.3933 56.9739C26.1785 56.5436 26.1434 56.0456 26.2958 55.5894L30.8886 41.8144C32.0773 38.2474 32.7308 34.5239 32.828 30.7654C32.8341 30.5273 32.8871 30.2928 32.9839 30.0752C33.0806 29.8577 33.2193 29.6613 33.392 29.4974C33.5647 29.3334 33.768 29.2051 33.9903 29.1198C34.2126 29.0344 34.4496 28.9937 34.6876 29ZM22.5221 36.6669C22.7498 36.7372 22.9613 36.8517 23.1447 37.0038C23.3281 37.1559 23.4796 37.3427 23.5908 37.5535C23.7019 37.7642 23.7703 37.9948 23.7922 38.2321C23.8141 38.4693 23.789 38.7086 23.7184 38.9361L18.995 54.1539C18.9281 54.3853 18.8156 54.6011 18.6643 54.7885C18.513 54.976 18.3259 55.1314 18.1138 55.2457C17.9017 55.36 17.669 55.4309 17.4292 55.4542C17.1894 55.4775 16.9474 55.4527 16.7173 55.3814C16.4872 55.3101 16.2736 55.1936 16.089 55.0388C15.9045 54.884 15.7526 54.6939 15.6424 54.4797C15.5321 54.2655 15.4657 54.0315 15.4469 53.7913C15.4282 53.5511 15.4575 53.3096 15.5331 53.0809L20.2565 37.8595C20.3993 37.4012 20.718 37.0183 21.1427 36.7947C21.5675 36.5711 22.0635 36.5252 22.5221 36.6669Z" fill="black"/>
<path d="M17.2515 21.1446C18.2526 18.3266 20.2167 15.9526 22.7974 14.4415C25.3781 12.9303 28.4095 12.379 31.357 12.8849C34.3045 13.3907 36.9786 14.9212 38.9078 17.2063C40.837 19.4914 41.8972 22.3844 41.9015 25.375C41.9015 25.8557 41.7105 26.3167 41.3706 26.6566C41.0307 26.9965 40.5697 27.1875 40.089 27.1875C39.6083 27.1875 39.1472 26.9965 38.8073 26.6566C38.4674 26.3167 38.2765 25.8557 38.2765 25.375C38.2761 23.2373 37.5201 21.1686 36.1421 19.5344C34.7641 17.9002 32.8528 16.8057 30.7459 16.4444C28.639 16.083 26.4722 16.4781 24.6283 17.5597C22.7845 18.6414 21.3824 20.34 20.6698 22.3554C20.5093 22.8087 20.1752 23.1796 19.7412 23.3866C19.3071 23.5937 18.8086 23.6197 18.3553 23.4592C17.902 23.2986 17.531 22.9646 17.324 22.5305C17.117 22.0965 17.0909 21.5979 17.2515 21.1446V21.1446ZM18.339 27.1984C18.8172 27.2451 19.2573 27.4799 19.5625 27.851C19.8677 28.2222 20.0131 28.6994 19.9666 29.1776C19.7219 31.6728 19.2363 34.1384 18.5166 36.54L14.0868 51.301C13.9489 51.7615 13.6336 52.1484 13.2104 52.3765C12.7873 52.6045 12.2908 52.6552 11.8303 52.5172C11.3698 52.3792 10.9829 52.064 10.7548 51.6408C10.5268 51.2176 10.4761 50.7211 10.6141 50.2606L15.0438 35.4996C15.6969 33.3216 16.1376 31.0854 16.3597 28.8224C16.4065 28.3441 16.6412 27.904 17.0124 27.5988C17.3835 27.2936 17.8607 27.1483 18.339 27.1948V27.1984ZM40.089 29.5438C40.5697 29.5438 41.0307 29.7347 41.3706 30.0746C41.7105 30.4145 41.9015 30.8755 41.9015 31.3563C41.9015 35.9963 41.1293 40.6073 39.6105 44.9935L35.6592 56.3941C35.4871 56.8282 35.1542 57.179 34.7298 57.3737C34.3054 57.5683 33.8222 57.5916 33.3811 57.4388C32.9399 57.2859 32.5747 56.9688 32.3616 56.5533C32.1485 56.1379 32.1039 55.6562 32.2372 55.2088L36.1848 43.8081C37.5696 39.8025 38.2801 35.5939 38.2801 31.3563C38.2801 30.8755 38.471 30.4145 38.811 30.0746C39.1509 29.7347 39.6119 29.5438 40.0926 29.5438H40.089Z" fill="black"/>
<path d="M14.1448 15.3047C16.1587 12.2856 19.0332 9.94107 22.3956 8.57529C25.7581 7.20952 29.4533 6.88545 33.0021 7.64512C33.2351 7.69463 33.4561 7.78955 33.6524 7.92447C33.8488 8.05938 34.0166 8.23164 34.1464 8.43142C34.2761 8.6312 34.3653 8.85458 34.4087 9.08882C34.4521 9.32305 34.449 9.56354 34.3995 9.79656C34.35 10.0296 34.2551 10.2506 34.1202 10.4469C33.9852 10.6433 33.813 10.8111 33.6132 10.9409C33.4134 11.0706 33.19 11.1598 32.9558 11.2032C32.7216 11.2466 32.4811 11.2435 32.2481 11.194C29.4084 10.5846 26.4511 10.8429 23.7601 11.9354C21.0691 13.0278 18.7686 14.9039 17.1572 17.3202C16.8861 17.7106 16.4725 17.9788 16.0056 18.0672C15.5386 18.1555 15.0556 18.057 14.6606 17.7927C14.2657 17.5284 13.9903 17.1196 13.8938 16.6542C13.7973 16.1889 13.8875 15.7043 14.1448 15.3047V15.3047ZM38.5048 11.8429C38.8188 11.4791 39.2644 11.2549 39.7436 11.2195C40.2228 11.1842 40.6965 11.3406 41.0604 11.6544C43.0329 13.3546 44.615 15.4608 45.6986 17.8288C46.7822 20.1968 47.3417 22.7708 47.3389 25.375V30.8125C47.3389 31.2932 47.148 31.7542 46.8081 32.0941C46.4682 32.434 46.0071 32.625 45.5264 32.625C45.0457 32.625 44.5847 32.434 44.2448 32.0941C43.9049 31.7542 43.7139 31.2932 43.7139 30.8125V25.375C43.7165 23.2915 43.2689 21.232 42.4017 19.3375C41.5345 17.443 40.2683 15.7583 38.6897 14.3985C38.3264 14.084 38.1029 13.6382 38.0682 13.159C38.0336 12.6797 38.1906 12.2064 38.5048 11.8429ZM13.3401 21.1772C13.5758 21.2118 13.8024 21.2926 14.0068 21.4148C14.2113 21.537 14.3897 21.6984 14.5318 21.8896C14.6739 22.0808 14.7769 22.2982 14.8349 22.5293C14.8929 22.7604 14.9047 23.0006 14.8698 23.2362C14.7647 23.9322 14.7103 24.65 14.7103 25.375C14.7103 27.9487 14.3478 30.5116 13.6301 32.9875L9.49756 47.2084C9.43564 47.4419 9.32763 47.6608 9.17991 47.852C9.03218 48.0432 8.84772 48.2029 8.63736 48.3218C8.427 48.4407 8.19499 48.5163 7.95498 48.5442C7.71497 48.5721 7.4718 48.5518 7.23978 48.4843C7.00775 48.4169 6.79155 48.3037 6.60388 48.1515C6.41622 47.9993 6.26088 47.8111 6.14701 47.598C6.03314 47.3849 5.96302 47.1512 5.94079 46.9106C5.91856 46.67 5.94467 46.4274 6.01756 46.197L10.1501 31.9761C10.7716 29.8309 11.0865 27.6085 11.0853 25.375C11.0853 24.4687 11.1542 23.577 11.2811 22.707C11.3157 22.4713 11.3964 22.2447 11.5186 22.0402C11.6408 21.8357 11.8022 21.6573 11.9934 21.5153C12.1847 21.3732 12.402 21.2702 12.6331 21.2122C12.8642 21.1542 13.1044 21.1423 13.3401 21.1772V21.1772ZM45.5373 34.4447C46.016 34.4853 46.459 34.7143 46.769 35.0814C47.0789 35.4484 47.2305 35.9235 47.1903 36.4023C46.8858 40.0273 46.1101 43.6015 44.8703 47.038L42.1733 54.5345C42.0052 54.9793 41.669 55.3402 41.2372 55.5394C40.8055 55.7386 40.3127 55.7601 39.8652 55.5994C39.4177 55.4386 39.0513 55.1085 38.8449 54.6801C38.6386 54.2517 38.6089 53.7594 38.7622 53.3093L41.4628 45.8055C42.5892 42.6759 43.3009 39.4122 43.5798 36.0978C43.6204 35.6191 43.8494 35.1761 44.2164 34.8661C44.5835 34.5562 45.0586 34.4046 45.5373 34.4447V34.4447Z" fill="#D07474"/>
<path d="M17.4362 4.96625C21.0184 2.89808 25.0819 1.80934 29.2182 1.80947C33.3545 1.8096 37.418 2.89861 41 4.967C44.5821 7.0354 47.5565 10.0103 49.6243 13.5927C51.6921 17.1751 52.7805 21.2387 52.78 25.375C52.78 25.8557 52.589 26.3167 52.2491 26.6566C51.9092 26.9965 51.4482 27.1875 50.9675 27.1875C50.4867 27.1875 50.0257 26.9965 49.6858 26.6566C49.3459 26.3167 49.155 25.8557 49.155 25.375C49.1561 21.8747 48.2358 18.4357 46.4864 15.4039C44.737 12.3721 42.2202 9.85424 39.1891 8.10356C36.158 6.35288 32.7195 5.43105 29.2191 5.43075C25.7188 5.43046 22.2801 6.3517 19.2487 8.10187C18.8345 8.31856 18.3525 8.36682 17.9036 8.23657C17.4546 8.10632 17.0733 7.80763 16.8394 7.4029C16.6054 6.99817 16.5369 6.51869 16.6481 6.06463C16.7593 5.61057 17.0417 5.21704 17.4362 4.96625V4.96625ZM14.21 9.52287C14.3875 9.68139 14.5321 9.87333 14.6355 10.0877C14.7389 10.3021 14.7991 10.5348 14.8125 10.7725C14.826 11.0101 14.7925 11.2481 14.714 11.4728C14.6355 11.6975 14.5135 11.9046 14.355 12.0821C11.0794 15.7341 9.27158 20.4693 9.27995 25.375C9.27995 25.8557 9.08899 26.3167 8.74908 26.6566C8.40917 26.9965 7.94815 27.1875 7.46745 27.1875C6.98674 27.1875 6.52573 26.9965 6.18582 26.6566C5.84591 26.3167 5.65495 25.8557 5.65495 25.375C5.65495 19.343 7.9242 13.833 11.6543 9.66787C11.8128 9.4903 12.0048 9.34569 12.2192 9.2423C12.4336 9.13891 12.6663 9.07877 12.9039 9.06531C13.1416 9.05184 13.3795 9.08532 13.6043 9.16383C13.829 9.24234 14.036 9.36434 14.2136 9.52287H14.21ZM6.94182 29.0725C7.40404 29.2026 7.79572 29.5109 8.03088 29.9295C8.26604 30.3482 8.32545 30.8431 8.19607 31.3055L5.3722 41.3359C5.31583 41.5735 5.21201 41.7973 5.06698 41.9938C4.92195 42.1903 4.7387 42.3555 4.52824 42.4794C4.31778 42.6033 4.08445 42.6834 3.84226 42.7149C3.60006 42.7464 3.35401 42.7286 3.11886 42.6626C2.88372 42.5966 2.66434 42.4837 2.47389 42.3308C2.28345 42.1779 2.12587 41.9881 2.01063 41.7728C1.89538 41.5575 1.82484 41.3211 1.80324 41.0778C1.78165 40.8345 1.80944 40.5894 1.88495 40.3571L4.7052 30.3267C4.76962 30.0975 4.87858 29.8832 5.02587 29.696C5.17316 29.5089 5.35589 29.3526 5.5636 29.2361C5.77131 29.1197 5.99994 29.0452 6.23643 29.0172C6.47291 28.9891 6.71261 29.0079 6.94182 29.0725V29.0725ZM50.9856 30.8161C51.2236 30.8208 51.4584 30.8724 51.6765 30.9679C51.8946 31.0633 52.0918 31.2008 52.2567 31.3725C52.4217 31.5442 52.5512 31.7467 52.6378 31.9684C52.7245 32.1902 52.7666 32.4268 52.7618 32.6649C52.6531 38.0987 52.1782 43.6305 50.1265 49.097L49.8727 49.7749C49.6952 50.2126 49.3538 50.5638 48.9212 50.7535C48.4886 50.9433 47.999 50.9566 47.5567 50.7908C47.1144 50.6249 46.7543 50.2929 46.5531 49.8655C46.352 49.4381 46.3256 48.949 46.4797 48.5025L46.7335 47.8246C48.5677 42.9309 49.0317 37.8921 49.1368 32.5924C49.1415 32.3543 49.1931 32.1196 49.2886 31.9015C49.384 31.6834 49.5215 31.4862 49.6932 31.3212C49.8649 31.1563 50.0674 31.0268 50.2892 30.9401C50.5109 30.8534 50.7475 30.8113 50.9856 30.8161V30.8161Z" fill="black"/>
</g>
<path d="M76.5578 11.767H79.7028V46.695H76.5578V11.767Z" fill="#494949"/>
<path d="M98.8622 38V11.249H106.151C108.79 11.249 111.035 11.656 112.885 12.47C114.76 13.284 116.264 14.357 117.399 15.689C118.534 17.021 119.36 18.501 119.878 20.129C120.421 21.7323 120.692 23.3357 120.692 24.939C120.692 26.9617 120.334 28.7747 119.619 30.378C118.928 31.9813 117.966 33.3503 116.733 34.485C115.5 35.6197 114.081 36.4953 112.478 37.112C110.899 37.704 109.222 38 107.446 38H98.8622ZM102.451 34.559H106.743C108.223 34.559 109.58 34.337 110.813 33.893C112.071 33.449 113.156 32.8077 114.069 31.969C115.006 31.1303 115.734 30.1067 116.252 28.898C116.77 27.6647 117.029 26.271 117.029 24.717C117.029 23.0643 116.758 21.6213 116.215 20.388C115.672 19.13 114.932 18.0817 113.995 17.243C113.058 16.4043 111.997 15.7753 110.813 15.356C109.629 14.912 108.383 14.69 107.076 14.69H102.451V34.559ZM132.234 38.37C130.803 38.37 129.496 38.0617 128.312 37.445C127.152 36.8283 126.227 35.928 125.537 34.744C124.871 33.5353 124.538 32.0677 124.538 30.341C124.538 28.639 124.895 27.1713 125.611 25.938C126.326 24.68 127.276 23.718 128.46 23.052C129.668 22.386 130.988 22.053 132.419 22.053C133.849 22.053 135.058 22.386 136.045 23.052C137.031 23.6933 137.784 24.458 138.302 25.346L138.08 25.938L138.413 22.682H141.595V38H138.154V34.004L138.524 34.892C138.425 35.1387 138.203 35.4593 137.858 35.854C137.537 36.224 137.093 36.6063 136.526 37.001C135.983 37.3957 135.354 37.7287 134.639 38C133.923 38.2467 133.122 38.37 132.234 38.37ZM133.159 35.521C134.022 35.521 134.799 35.3607 135.49 35.04C136.18 34.7193 136.748 34.2753 137.192 33.708C137.66 33.116 137.981 32.413 138.154 31.599V28.602C137.956 27.862 137.611 27.2207 137.118 26.678C136.624 26.1107 136.032 25.679 135.342 25.383C134.651 25.0623 133.886 24.902 133.048 24.902C132.135 24.902 131.296 25.124 130.532 25.568C129.767 26.012 129.15 26.6287 128.682 27.418C128.238 28.2073 128.016 29.1323 128.016 30.193C128.016 31.1797 128.25 32.08 128.719 32.894C129.187 33.708 129.816 34.3493 130.606 34.818C131.395 35.2867 132.246 35.521 133.159 35.521ZM149.029 15.948H152.47V22.756H156.688V25.457H152.47V38H149.029V25.457H146.217V22.756H149.029V15.948ZM167.21 38.37C165.779 38.37 164.472 38.0617 163.288 37.445C162.129 36.8283 161.204 35.928 160.513 34.744C159.847 33.5353 159.514 32.0677 159.514 30.341C159.514 28.639 159.872 27.1713 160.587 25.938C161.302 24.68 162.252 23.718 163.436 23.052C164.645 22.386 165.964 22.053 167.395 22.053C168.826 22.053 170.034 22.386 171.021 23.052C172.008 23.6933 172.76 24.458 173.278 25.346L173.056 25.938L173.389 22.682H176.571V38H173.13V34.004L173.5 34.892C173.401 35.1387 173.179 35.4593 172.834 35.854C172.513 36.224 172.069 36.6063 171.502 37.001C170.959 37.3957 170.33 37.7287 169.615 38C168.9 38.2467 168.098 38.37 167.21 38.37ZM168.135 35.521C168.998 35.521 169.775 35.3607 170.466 35.04C171.157 34.7193 171.724 34.2753 172.168 33.708C172.637 33.116 172.957 32.413 173.13 31.599V28.602C172.933 27.862 172.587 27.2207 172.094 26.678C171.601 26.1107 171.009 25.679 170.318 25.383C169.627 25.0623 168.863 24.902 168.024 24.902C167.111 24.902 166.273 25.124 165.508 25.568C164.743 26.012 164.127 26.6287 163.658 27.418C163.214 28.2073 162.992 29.1323 162.992 30.193C162.992 31.1797 163.226 32.08 163.695 32.894C164.164 33.708 164.793 34.3493 165.582 34.818C166.371 35.2867 167.222 35.521 168.135 35.521Z" fill="#FF4343"/>
<path d="M204.319 35.706C203.949 36.0267 203.431 36.3473 202.765 36.668C202.099 36.964 201.359 37.2353 200.545 37.482C199.755 37.7287 198.929 37.926 198.066 38.074C197.227 38.222 196.438 38.296 195.698 38.296C193.552 38.296 191.615 37.963 189.889 37.297C188.187 36.631 186.719 35.706 185.486 34.522C184.277 33.338 183.34 31.9443 182.674 30.341C182.032 28.7377 181.712 26.9987 181.712 25.124C181.712 22.904 182.069 20.9183 182.785 19.167C183.525 17.391 184.524 15.8987 185.782 14.69C187.064 13.4567 188.532 12.5317 190.185 11.915C191.837 11.2737 193.589 10.953 195.439 10.953C196.993 10.953 198.436 11.138 199.768 11.508C201.1 11.878 202.271 12.3467 203.283 12.914L202.062 16.207C201.568 15.911 200.952 15.6397 200.212 15.393C199.496 15.1463 198.756 14.949 197.992 14.801C197.227 14.6283 196.512 14.542 195.846 14.542C194.267 14.542 192.836 14.7887 191.554 15.282C190.271 15.7507 189.173 16.4413 188.261 17.354C187.348 18.242 186.645 19.3273 186.152 20.61C185.658 21.868 185.412 23.2863 185.412 24.865C185.412 26.3203 185.658 27.6523 186.152 28.861C186.645 30.0697 187.348 31.118 188.261 32.006C189.173 32.8693 190.259 33.5477 191.517 34.041C192.799 34.5097 194.205 34.744 195.735 34.744C196.647 34.744 197.548 34.6577 198.436 34.485C199.324 34.2877 200.088 34.0163 200.73 33.671V28.343H195.402V24.902H204.319V35.706ZM213.383 22.682L213.716 27.122L213.531 26.53C213.926 25.5927 214.493 24.8033 215.233 24.162C215.998 23.496 216.787 22.9903 217.601 22.645C218.44 22.275 219.167 22.09 219.784 22.09L219.599 25.494C218.44 25.42 217.416 25.642 216.528 26.16C215.665 26.678 214.974 27.3687 214.456 28.232C213.963 29.0953 213.716 30.0203 213.716 31.007V38H210.312V22.682H213.383ZM224.223 22.682H227.664V38H224.223V22.682ZM223.964 17.132C223.964 16.5893 224.174 16.133 224.593 15.763C225.037 15.393 225.518 15.208 226.036 15.208C226.554 15.208 227.01 15.393 227.405 15.763C227.824 16.133 228.034 16.5893 228.034 17.132C228.034 17.6993 227.824 18.168 227.405 18.538C227.01 18.8833 226.554 19.056 226.036 19.056C225.518 19.056 225.037 18.871 224.593 18.501C224.174 18.131 223.964 17.6747 223.964 17.132ZM242.646 38.37C241.486 38.37 240.364 38.0987 239.279 37.556C238.218 37.0133 237.392 36.2857 236.8 35.373L237.022 34.3V45.363H233.618V22.46H236.578L237.059 26.382L236.689 25.309C237.429 24.3717 238.366 23.5947 239.501 22.978C240.635 22.3613 241.906 22.053 243.312 22.053C244.742 22.053 246.025 22.3983 247.16 23.089C248.319 23.7797 249.232 24.7417 249.898 25.975C250.564 27.2083 250.897 28.6513 250.897 30.304C250.897 31.9567 250.539 33.3873 249.824 34.596C249.108 35.8047 248.122 36.742 246.864 37.408C245.63 38.0493 244.224 38.37 242.646 38.37ZM241.98 35.632C242.966 35.632 243.867 35.41 244.681 34.966C245.519 34.4973 246.185 33.8683 246.679 33.079C247.172 32.265 247.419 31.3523 247.419 30.341C247.419 29.305 247.184 28.3923 246.716 27.603C246.247 26.789 245.618 26.1477 244.829 25.679C244.064 25.2103 243.201 24.976 242.239 24.976C241.351 24.976 240.549 25.1487 239.834 25.494C239.118 25.8393 238.526 26.3203 238.058 26.937C237.589 27.529 237.256 28.2197 237.059 29.009V31.562C237.182 32.3513 237.478 33.0543 237.947 33.671C238.415 34.2877 238.995 34.7687 239.686 35.114C240.401 35.4593 241.166 35.632 241.98 35.632Z" fill="#444444"/>
</svg>
