<svg width="25" height="25" viewBox="0 0 25 25" fill="none" xmlns="http://www.w3.org/2000/svg">
<path d="M18.4954 16.3577C19.9747 14.3388 20.6372 11.8357 20.3505 9.34926C20.0638 6.86279 18.8489 4.57628 16.949 2.94718C15.049 1.31809 12.6041 0.466541 10.1034 0.562913C7.60264 0.659285 5.23049 1.69647 3.46152 3.46695C1.69255 5.23744 0.657209 7.61067 0.562641 10.1118C0.468072 12.613 1.32125 15.0576 2.95147 16.9567C4.5817 18.8557 6.86876 20.0691 9.35508 20.3541C11.8414 20.6391 14.3436 19.9747 16.3612 18.4937H16.3597C16.4055 18.5548 16.4544 18.6129 16.5094 18.6694L22.3911 24.552C22.6776 24.8387 23.0662 24.9998 23.4714 25C23.8767 25.0001 24.2654 24.8393 24.5521 24.5528C24.8387 24.2663 24.9998 23.8776 25 23.4723C25.0001 23.067 24.8393 22.6782 24.5528 22.3915L18.6711 16.5089C18.6165 16.4536 18.5577 16.4026 18.4954 16.3561V16.3577ZM18.8896 10.4843C18.8896 11.5879 18.6722 12.6806 18.25 13.7002C17.8277 14.7198 17.2088 15.6462 16.4285 16.4266C15.6483 17.2069 14.722 17.8259 13.7026 18.2482C12.6831 18.6706 11.5905 18.8879 10.4871 18.8879C9.38367 18.8879 8.29105 18.6706 7.27161 18.2482C6.25218 17.8259 5.3259 17.2069 4.54566 16.4266C3.76542 15.6462 3.1465 14.7198 2.72423 13.7002C2.30197 12.6806 2.08463 11.5879 2.08463 10.4843C2.08463 8.25551 2.96989 6.11801 4.54566 4.54202C6.12143 2.96603 8.25863 2.08065 10.4871 2.08065C12.7156 2.08065 14.8528 2.96603 16.4285 4.54202C18.0043 6.11801 18.8896 8.25551 18.8896 10.4843Z" fill="#4A4A4A"/>
</svg>
